<svg xmlns="http://www.w3.org/2000/svg" width="22" height="32" viewBox="0 0 22 32" fill="none">
  <g clip-path="url(#clip0_1380_887)">
    <path d="M6.27539 21.606H15.7247V26.3306H6.27539V21.606Z" fill="#E74040"/>
    <path d="M11.0002 3.65186C5.26882 3.65186 0.605957 8.31478 0.605957 14.0461V28.2201C0.605957 30.3042 2.30154 31.9998 4.38569 31.9998H17.6147C19.6989 31.9998 21.3945 30.3042 21.3945 28.2201V14.0461C21.3945 8.31472 16.7317 3.65186 11.0002 3.65186ZM5.33062 12.1562H16.6698V14.0461H14.7799V15.936H12.8901V14.0461H5.33062V12.1562ZM17.6147 28.2201H4.38569V19.7157H17.6147V28.2201Z" fill="#E74040"/>
    <path d="M20.7052 1.83877L15.342 0L14.5576 2.288C16.4528 2.86245 18.1555 3.88336 19.5431 5.22799L20.7052 1.83877Z" fill="#E74040"/>
    <path d="M7.44302 2.288L6.65853 0L1.29541 1.83877L2.45743 5.22799C3.84509 3.88342 5.5478 2.86245 7.44302 2.288Z" fill="#E74040"/>
  </g>
  <defs>
    <clipPath id="clip0_1380_887">
      <rect width="20.7885" height="32" fill="white" transform="translate(0.605957)"/>
    </clipPath>
  </defs>
</svg>