<svg xmlns="http://www.w3.org/2000/svg" width="32" height="32" viewBox="0 0 32 32" fill="none">
  <g clip-path="url(#clip0_1380_848)">
    <path d="M1.71436 19.9999C1.71436 20.3155 1.97021 20.5714 2.28578 20.5714H29.7144C30.0299 20.5714 30.2858 20.3155 30.2858 19.9999V2.28564H1.71436V19.9999Z" fill="#E74040"/>
    <path d="M31.4286 0H0.571429C0.255859 0 0 0.255859 0 0.571429C0 0.886998 0.255859 1.14286 0.571429 1.14286H31.4286C31.7441 1.14286 32 0.886998 32 0.571429C32 0.255859 31.7441 0 31.4286 0Z" fill="#E74040"/>
    <path d="M20.5715 29.7144H16.5715V22.8572H17.1429C17.4585 22.8572 17.7144 22.6014 17.7144 22.2858V21.7144H14.2858V22.2858C14.2858 22.6014 14.5416 22.8572 14.8572 22.8572H15.4286V29.7144H11.4286C10.4819 29.7144 9.71436 30.4819 9.71436 31.4286V32.0001H22.2858V31.4286C22.2858 30.4819 21.5182 29.7144 20.5715 29.7144Z" fill="#E74040"/>
  </g>
  <defs>
    <clipPath id="clip0_1380_848">
      <rect width="32" height="32" fill="white"/>
    </clipPath>
  </defs>
</svg>
