<svg xmlns="http://www.w3.org/2000/svg" width="33" height="32" viewBox="0 0 33 32" fill="none">
  <g clip-path="url(#clip0_1380_859)">
    <path d="M14.095 12.4947C14.1326 12.465 14.1718 12.4384 14.2108 12.4104C14.3099 12.339 14.4133 12.2745 14.5209 12.2172C14.5632 12.1941 14.6041 12.1711 14.6475 12.1508C15.6517 11.663 16.8509 11.8274 17.6869 12.5671C17.7311 12.6056 17.767 12.6492 17.8088 12.6898C17.8927 12.7708 17.9718 12.8567 18.0454 12.9473C18.0871 12.9994 18.1219 13.0557 18.1579 13.1108C18.2177 13.1976 18.2729 13.2876 18.3226 13.3806C18.3547 13.4413 18.3827 13.5031 18.4101 13.5662C18.4513 13.6603 18.487 13.7569 18.5174 13.8549C18.5377 13.9208 18.557 13.9856 18.5737 14.0523C18.5968 14.1546 18.614 14.2578 18.6256 14.3621C18.6333 14.4272 18.6429 14.4914 18.6462 14.557C18.6503 14.6715 18.6473 14.7859 18.6374 14.9001C18.6333 14.9561 18.6338 15.0124 18.6267 15.0686C18.6039 15.2328 18.566 15.3947 18.5141 15.552C18.5141 15.5605 18.5114 15.5684 18.5087 15.5767L20.0179 16.4481L22.8285 11.5758L7.25414 2.58203L4.4436 7.45381L13.742 12.8213C13.8499 12.7024 13.9681 12.5932 14.095 12.4947Z" fill="#E74040"/>
    <path d="M1.6543 7.78827L6.15116 0L7.12414 0.561834L2.62728 8.3501L1.6543 7.78827Z" fill="#E74040"/>
    <path d="M26.9883 17.872L27.5507 16.8979L31.4448 19.1464L30.8824 20.1205L26.9883 17.872Z" fill="#E74040"/>
    <path d="M21.5583 16.0343L23.2447 13.1143L27.1388 15.363L25.4525 18.283L21.5583 16.0343Z" fill="#E74040"/>
    <path d="M17.17 15.9645C17.1442 15.917 17.1115 15.8736 17.0728 15.8358C17.1615 15.7438 17.2391 15.6417 17.3039 15.5317C17.768 14.7247 17.4938 13.6947 16.6899 13.2253C16.5744 13.1605 16.4514 13.1098 16.3241 13.0735C16.2865 13.0623 16.2478 13.0554 16.2118 13.0469C16.1193 13.0269 16.0252 13.0145 15.9308 13.0099C15.8901 13.0099 15.8503 13.0049 15.8097 13.006C15.6755 13.009 15.5421 13.028 15.4123 13.0623C14.8395 13.213 14.3885 13.6551 14.2269 14.2252C14.0652 14.7953 14.2167 15.4082 14.6254 15.8374C14.587 15.8747 14.5546 15.9176 14.5288 15.9645L6.91205 31.1862C6.77344 31.4642 6.88625 31.8018 7.16401 31.9407C7.44177 32.0793 7.77964 31.9667 7.91824 31.6887L15.2847 16.9504V31.4376C15.2847 31.748 15.5363 31.9997 15.8468 31.9997C16.1572 31.9997 16.4089 31.748 16.4089 31.4376V16.9548L23.7725 31.6887C23.9114 31.9667 24.249 32.0793 24.5271 31.9407C24.8048 31.8018 24.9176 31.4642 24.7787 31.1862L17.17 15.9645Z" fill="#E74040"/>
  </g>
  <defs>
    <clipPath id="clip0_1380_859">
      <rect width="32" height="32" fill="white" transform="translate(0.5)"/>
    </clipPath>
  </defs>
</svg>